<svg width="195" height="43" viewBox="0 0 195 43" fill="none" xmlns="http://www.w3.org/2000/svg">
<path d="M58.36 14.64C58.36 13.2 57.64 12.48 56.2 12.48H50.08C48.64 12.48 47.92 13.2 47.92 14.64V26.16C47.92 27.6 48.64 28.32 50.08 28.32H56.2C57.64 28.32 58.36 27.6 58.36 26.16V14.64ZM64.84 26.16C64.84 28.68 64.264 30.516 63.112 31.668C61.984 32.796 60.16 33.36 57.64 33.36H48.64C46.12 33.36 44.284 32.796 43.132 31.668C42.004 30.516 41.44 28.68 41.44 26.16V14.64C41.44 12.12 42.004 10.296 43.132 9.168C44.284 8.016 46.12 7.44 48.64 7.44H57.64C60.16 7.44 61.984 8.016 63.112 9.168C64.264 10.296 64.84 12.12 64.84 14.64V26.16ZM76.9169 28.14C78.1889 28.14 79.6289 27.9 81.2369 27.42V13.92H87.5369V33H81.9569L81.5969 31.2C80.4689 31.944 79.3049 32.496 78.1049 32.856C76.9289 33.192 75.9329 33.36 75.1169 33.36H73.4969C71.8649 33.36 70.5569 32.868 69.5729 31.884C68.5889 30.9 68.0969 29.592 68.0969 27.96V13.92H74.3969V26.88C74.3969 27.24 74.5169 27.54 74.7569 27.78C74.9969 28.02 75.2969 28.14 75.6569 28.14H76.9169ZM102.104 19.14C100.592 19.14 99.0322 19.5 97.4242 20.22V33H91.1242V13.92H96.7042L97.0642 16.26C99.1282 14.46 101.288 13.56 103.544 13.56H105.164V19.14H102.104ZM120.283 33H113.803V12.84H106.243V7.8H127.843V12.84H120.283V33ZM137.034 28.14C138.306 28.14 139.746 27.9 141.354 27.42V13.92H147.654V33H142.074L141.714 31.2C140.586 31.944 139.422 32.496 138.222 32.856C137.046 33.192 136.05 33.36 135.234 33.36H133.614C131.982 33.36 130.674 32.868 129.69 31.884C128.706 30.9 128.214 29.592 128.214 27.96V13.92H134.514V26.88C134.514 27.24 134.634 27.54 134.874 27.78C135.114 28.02 135.414 28.14 135.774 28.14H137.034ZM164.021 19.68C164.021 19.32 163.901 19.02 163.661 18.78C163.421 18.54 163.121 18.42 162.761 18.42H161.861C160.853 18.42 159.977 18.468 159.233 18.564C158.513 18.66 157.949 18.732 157.541 18.78V28.14H162.581C163.541 28.14 164.021 27.66 164.021 26.7V19.68ZM157.541 14.28C159.869 13.8 161.909 13.56 163.661 13.56H164.921C166.553 13.56 167.861 14.052 168.845 15.036C169.829 16.02 170.321 17.328 170.321 18.96V27.24C170.321 29.04 169.805 30.456 168.773 31.488C167.765 32.496 166.361 33 164.561 33H151.241V7.8H157.541V14.28ZM180.946 18.06C179.986 18.06 179.506 18.54 179.506 19.5V21.48H185.626V19.5C185.626 18.54 185.146 18.06 184.186 18.06H180.946ZM191.206 32.64C186.574 33.12 182.374 33.36 178.606 33.36C176.974 33.36 175.666 32.868 174.682 31.884C173.698 30.9 173.206 29.592 173.206 27.96V19.32C173.206 17.52 173.71 16.116 174.718 15.108C175.75 14.076 177.166 13.56 178.966 13.56H186.166C187.966 13.56 189.37 14.076 190.378 15.108C191.41 16.116 191.926 17.52 191.926 19.32V25.98H179.506V27.42C179.506 27.78 179.626 28.08 179.866 28.32C180.106 28.56 180.406 28.68 180.766 28.68C183.142 28.68 186.622 28.5 191.206 28.14V32.64Z" fill="black"/>
<path d="M28.528 9.73584H3.472C1.5616 9.73584 0 11.2974 0 13.2078V28.1262C0 30.0334 1.5616 31.5982 3.472 31.5982H10.5888V40.2574L19.2512 31.5982H28.528C30.4384 31.5982 32 30.0334 32 28.1262V13.2078C32 11.2974 30.4384 9.73584 28.528 9.73584ZM20.7648 24.9646C20.7648 25.9214 20.0768 26.3342 19.232 25.8862L11.1424 21.5758C10.3008 21.1278 10.3008 20.3918 11.1424 19.9438L19.232 15.6334C20.0768 15.1854 20.7648 15.5982 20.7648 16.555V24.9678V24.9646Z" fill="black"/>
</svg>
